<svg width="70" height="70" viewBox="0 0 70 70" fill="none" xmlns="http://www.w3.org/2000/svg">
<path fill-rule="evenodd" clip-rule="evenodd" d="M51.3333 42C46.6667 46.6667 46.6667 51.3333 42 51.3333C37.3333 51.3333 32.6667 46.6667 28 42C23.3333 37.3333 18.6667 32.6667 18.6667 28C18.6667 23.3333 23.3333 23.3333 28 18.6667C32.6667 14 18.6667 0 14 0C9.33333 0 0 14 0 14C0 23.3333 9.59 42.2567 18.6667 51.3333C27.7387 60.41 46.6667 70 56 70C56 70 70 60.6667 70 56C70 51.3333 56 37.3333 51.3333 42" fill="#E58027"/>
</svg>
